<?xml version="1.0" encoding="UTF-8"?>
<svg xmlns="http://www.w3.org/2000/svg" id="Layer_1" data-name="Layer 1" viewBox="0 0 799.52 154.71">
  <defs>
    <style>.cls-1{fill:#8fadb6;}</style>
  </defs>
  <path class="cls-1" d="M2.77,60.77a14.74,14.74,0,0,1,7.43-5.56,134.21,134.21,0,0,1,19-6c7-1.57,8.8-.48,10.67,6.58.8,3,1.28,6.1,2,9.53,2.92-3.51,5.35-6.86,8.22-9.8,5.77-5.89,12.46-9.5,21.06-6.71,5.4,1.75,8.75,5.6,9.52,11.1.87,6.18.86,12.45-4.58,17-5.64,4.69-14.55,2.71-18.51-3.93-3.23-5.42-7.1-5.49-10.7-.19-2.51,3.69-3.32,8-3.83,12.24-1.76,14.54-1.69,29.16-1.16,43.76.23,6.1,2.46,10.88,9.31,12.35,3,.64,5.78,2.27,5.71,6s-3.09,5-6.07,5.56a109.12,109.12,0,0,1-39.19.28c-3.33-.54-6-2.4-6.32-6.09-.26-3.44,2.4-4.9,5.18-5.84,5.28-1.78,7.09-6,7.11-10.88.1-17.58.82-35.19-.77-52.75-.41-4.56-2.17-7.93-7.06-9-2.64-.57-4.7-2.33-7-3.6Z" transform="translate(-2.77 -2)"></path>
  <path class="cls-1" d="M802.29,149.45h-.48l-.48,0a3.4,3.4,0,0,1,0-5c.32,0,.64,0,1,0Z" transform="translate(-2.77 -2)"></path>
  <path class="cls-1" d="M801.33,144.45v5a7.92,7.92,0,0,1-6.09,3.88,135.79,135.79,0,0,1-35.8.14,19.85,19.85,0,0,1-3.35-.93c-2.43-.78-4.13-2.38-4.28-4.95a5,5,0,0,1,3.71-5.33c8.19-2.18,9.39-8.53,9.59-15.45.43-14.11.23-28.21-1.86-42.2-1.11-7.46-3.89-13.91-12.19-15.82-8.86-2-16.07.91-21.49,8.06-5.21,6.88-5.62,15.17-6,23.25-.44,9.77-.21,19.58-.2,29.37,0,5.73,1.56,10.39,8,12.15,2.84.77,5.16,2.71,4.86,6.1s-3,4.92-5.78,5.39a117.55,117.55,0,0,1-38.22,0c-3-.5-5.58-2.38-5.82-6-.22-3.3,2.16-4.74,4.72-5.65,4.89-1.73,6.77-5.31,7.41-10.17a115.88,115.88,0,0,0,.74-15.9c-.2-26,.59-52.11-.86-78.15-.11-2-.35-4-.41-5.95-.16-5.39-2.79-8.4-8.17-9.59-2.88-.64-6.4-1.24-6.6-5.57-.18-4.07,2.83-5.37,5.64-6.73a73.13,73.13,0,0,1,25.76-7.26c6.72-.57,8.91,1.35,8.82,8.07-.21,15.93-.61,31.85-.93,47.78,0,1.32,0,2.66.08,4,.07,1,.32,2.06,1.37,2.44s1.78-.62,2.43-1.33c1.69-1.83,3.19-3.85,5-5.53,10.71-9.82,23.13-12,36.6-7.18,13,4.63,18.1,15.43,20.25,28,2.31,13.48,1,27.16,1.7,40.73.22,4.14.17,8.3.12,12.44-.06,4.7,1.93,7.92,6.41,9.59C798.36,141.83,800.19,142.65,801.33,144.45Z" transform="translate(-2.77 -2)"></path>
  <path class="cls-1" d="M502.39,154.3a83.23,83.23,0,0,1-17.42-.9c-3.33-.54-6.79-1.31-7.53-5.35-.77-4.2,2.57-5.31,5.51-6.51a8.53,8.53,0,0,0,5.57-7.59c.3-3,.72-5.94.73-8.91.07-18.93-.06-37.86.13-56.79,0-3.73-1-5.2-4.76-4.7-1.8.23-3.66,0-5.49,0-4.23.15-5.92-1.74-5.73-6,.26-5.83.82-6.63,6.64-6.6,8.24,0,8.13,0,7.57-8-.75-10.93-.51-21.69,7.64-30.41,10.09-10.8,32.68-14,45.4-6.34,5.22,3.13,9.05,7.23,9,13.88,0,4-.23,7.7-4.44,9.71a12.84,12.84,0,0,1-13.54-2c-2.3-2.06-3.42-4.87-5-7.41-3.34-5.45-7.79-7.58-12.33-5.88-4.7,1.76-6.3,5.69-5,12.47,1.4,7.49,4.07,14.73,4.23,22.44,0,2.15,1.47,2.29,3.09,2.19,3.82-.23,7.64-.47,11.46-.67s5.26,2,5.25,5.56-.37,6.87-5,7c-3.66.13-7.33.13-11,0-2.4-.08-3.7.46-3.67,3.25.28,21.91-.54,43.83.74,65.73.23,3.94,1.67,7.08,6,8.13a15.74,15.74,0,0,1,3.2,1.37c2.38,1.18,4.12,2.78,3.91,5.75s-2.38,4.39-4.87,4.93a80.43,80.43,0,0,1-10.83,1.53C508.74,154.5,505.56,154.3,502.39,154.3Z" transform="translate(-2.77 -2)"></path>
  <path class="cls-1" d="M242,141.32c3.75-.18,8.57,0,13.4-.39,6.21-.45,10.09-3.67,13.08-8.64,1.54-2.55,2.81-5.3,5-7.38,3.21-3,6.07-2.49,7.87,1.39,2.95,6.37-1.49,23.45-7.19,27.7a6.08,6.08,0,0,1-5.15,1.34c-12-2.85-24.19-1.69-36.3-1.84-10.82-.14-21.65,0-32.47-.07-2.91,0-6.39.74-8.09-2.49s.45-6.1,2.13-8.72Q213,113.08,231.75,84c3.24-5,6.59-10,9.68-15.1,2.91-4.83,2.15-6.14-3.29-6.18s-11,.12-16.48,0c-6.51-.13-11.12,2.7-14.16,8.36-1.57,2.92-3,5.93-5.63,8.16-3.68,3.15-8.05,2.14-8.64-2.53A33.68,33.68,0,0,1,201,49.87a4.9,4.9,0,0,1,5.84-1.56c7,2.52,14.32,2.56,21.67,2.5,13.49-.1,27-.05,40.46,0,2.78,0,5.95-.53,7.68,2.38,1.91,3.2-.46,5.75-2,8.17Q252.89,95,231,128.61c-1.63,2.51-3.26,5-4.82,7.56-2,3.23-1,5,2.77,5.13C233,141.39,236.94,141.32,242,141.32Z" transform="translate(-2.77 -2)"></path>
  <path class="cls-1" d="M642.59,47.65c3,.34,6,.58,8.9,1.06,3.15.51,6.13.75,9.17-.76,4-2,7.54-.68,10.3,2.49a32.55,32.55,0,0,1,8.35,22.3c0,2.94-.77,5.79-3.89,6.88a6.85,6.85,0,0,1-8-2.49c-2.25-2.87-4.26-5.92-6.39-8.88-4.3-6-10-9-17.53-8.45-5.51.44-9.74,3.49-11.35,8.27C630.37,73.29,632,77.54,636,81c4.41,3.87,9.72,6.34,14.9,9,7.72,3.93,15.3,8.06,21.8,13.9,11.74,10.54,12.86,26.1,2.65,38.24-9.6,11.41-22.24,15-36.65,14-6.63-.45-13.11-3.48-20-.07-2.72,1.36-5.42-1.23-7-3.62a43,43,0,0,1-7.46-26.82,6.23,6.23,0,0,1,3.93-5.87c2.55-1,4.84-.11,6.85,1.73,2.63,2.41,4.34,5.44,6.15,8.42,5.91,9.73,15.35,14.21,26.64,12.5,4.73-.71,8.59-3,10.19-7.71a11.58,11.58,0,0,0-2.72-12.45c-3.63-3.76-8.07-6.37-12.7-8.66-7.45-3.69-14.93-7.28-21.84-12-11-7.49-15.28-17.71-12.25-30.58,2.88-12.21,11.29-19.15,23.18-22.11A37.3,37.3,0,0,1,642.59,47.65Z" transform="translate(-2.77 -2)"></path>
  <path class="cls-1" d="M424.65,65.6c4-5.27,7.21-9.91,11.79-13.33,4-3,8.34-4.79,13.44-4.36,7.61.64,13.07,5.94,13.73,13.33.85,9.48-2.2,15.69-8.63,17.55-6,1.74-11.6-.58-14.83-6.14-2.89-5-6.62-5.16-10.15-.45-2.9,3.87-3.72,8.52-4.26,13.11-1.72,14.36-1.62,28.8-1.14,43.23.21,6.32,2.52,11.2,9.57,12.68,3,.63,5.67,2.39,5.45,6.1-.21,3.51-3,4.66-5.82,5.23a106.74,106.74,0,0,1-39.64.27c-3.14-.53-5.66-2.31-6.06-5.75s2.08-5,4.9-6c5.46-1.83,7.36-6.14,7.38-11.23.05-17.57.8-35.16-.81-52.72-.42-4.61-2.46-7.63-7.19-8.93-2.94-.81-6.59-1.69-6.67-5.67S388.85,57,392,55.67a118.86,118.86,0,0,1,19.88-6.44c7-1.62,8.87-.53,10.73,6.45C423.4,58.7,423.88,61.81,424.65,65.6Z" transform="translate(-2.77 -2)"></path>
  <path class="cls-1" d="M586.58,69.93c-.51,19.35-1.47,36.24-1.12,53.16.06,3.13.45,6.26.67,9.4.29,4.27,2.3,7.14,6.55,8.34a11,11,0,0,1,2.68,1.29c1.95,1.19,3.3,2.73,3.15,5.23s-1.74,3.91-3.79,4.8c-4,1.74-8.43,1.88-12.71,2.07a121.54,121.54,0,0,1-23.89-.79,29.28,29.28,0,0,1-5.73-1.56,5.52,5.52,0,0,1-3.57-5,4.68,4.68,0,0,1,3.32-5.06c8.45-2.43,9.37-9,9.24-16.11-.31-15.75.5-31.5-.72-47.23-.41-5.41-2.1-9.14-7.85-10.45-2.86-.66-6.1-1.68-6.3-5.41s2.92-5.41,5.8-6.67A111.62,111.62,0,0,1,579,48c5.22-.87,7.4,1,7.57,6.45C586.73,60.44,586.58,66.41,586.58,69.93Z" transform="translate(-2.77 -2)"></path>
  <path class="cls-1" d="M573.7,41.84c-4.72,0-8.06-.81-11-3-5.19-3.93-5.88-10.36-1.69-15.31,5.29-6.27,15.53-7.47,22.19-2.61a10.61,10.61,0,0,1,1.18,16.48A16.5,16.5,0,0,1,573.7,41.84Z" transform="translate(-2.77 -2)"></path>
  <path class="cls-1" d="M185.37,143.42c-.36-3.35-3.45-4.41-6.21-4.91-5.82-1-7.42-4.94-7.44-10.06-.05-8,0-15.93,0-23.9h-.21c0-8.14.19-16.28,0-24.41-.35-12-3.12-23.23-15.8-28-19.05-7.18-37.89-6-55.86,3.8-5.1,2.76-8.9,7-9.87,13.09-.6,3.8.13,7.34,3.3,9.91s6.79,2.25,10.38.89,6.27-4.29,8.77-7.2c3-3.53,6.11-7,10.33-9.26,12.6-6.62,24.35,0,25,14.14.11,2.49.07,5,.06,7.47,0,6.21,0,5.92-6.38,5.25-14.35-1.51-28.65-1.81-41.92,5.25-13,6.91-19,19.81-16.64,35.34,1.92,12.83,11.62,22.6,25.6,25.17,12.23,2.25,23.49-.85,33.65-7.72,3.62-2.44,6.08-2.24,8.83,1.19s5.76,6.65,10.48,7a28.71,28.71,0,0,0,19.72-5.61C183.61,149,185.72,146.66,185.37,143.42ZM123.16,139c-9-1.45-14.22-8.43-14.37-17.16s5.34-15.78,14.19-18c7.4-1.9,14.81-1.19,22.23.06,2.11.35,2.61,1.6,2.55,3.5-.09,2.82,0,5.64,0,8.45h0c0,1.49,0,3,0,4.47C148.05,136.68,139.18,141.55,123.16,139Z" transform="translate(-2.77 -2)"></path>
  <path class="cls-1" d="M383.59,91.36C380.82,72,371.38,57,352.34,50.58s-37-2.59-51.63,11.74c-14.3,14-17.85,31.57-15.08,50.9,3.56,24.86,23.68,43.31,47.58,43.35,17.3.14,30.82-7.1,40.68-21.13C383.25,122.13,385.85,107.23,383.59,91.36ZM345.24,141c-9.49,1.44-16.87-3.33-22.94-9.75-11.62-12.3-17.84-27.09-17.66-44.1.09-9.15,3.82-16.83,12.38-21.2s16.87-2.86,24.36,2.7C356.75,80,363,96.17,364.73,111,365,129.24,357.91,139.05,345.24,141Z" transform="translate(-2.77 -2)"></path>
</svg>
